<?xml version="1.0" encoding="UTF-8" standalone="no"?>
<!-- Created with Inkscape (http://www.inkscape.org/) -->

<svg
   xmlns:dc="http://purl.org/dc/elements/1.1/"
   xmlns:cc="http://creativecommons.org/ns#"
   xmlns:rdf="http://www.w3.org/1999/02/22-rdf-syntax-ns#"
   xmlns:svg="http://www.w3.org/2000/svg"
   xmlns="http://www.w3.org/2000/svg"
   xmlns:sodipodi="http://sodipodi.sourceforge.net/DTD/sodipodi-0.dtd"
   xmlns:inkscape="http://www.inkscape.org/namespaces/inkscape"
   width="64px"
   height="64px"
   id="svg3771"
   version="1.1"
   inkscape:version="0.48.4 r9939"
   sodipodi:docname="address.svg">
  <defs
     id="defs3773" />
  <sodipodi:namedview
     id="base"
     pagecolor="#ffffff"
     bordercolor="#666666"
     borderopacity="1.0"
     inkscape:pageopacity="0.0"
     inkscape:pageshadow="2"
     inkscape:zoom="3.8890873"
     inkscape:cx="26.047279"
     inkscape:cy="29.333819"
     inkscape:current-layer="layer1"
     showgrid="true"
     inkscape:document-units="px"
     inkscape:grid-bbox="true"
     inkscape:window-width="1366"
     inkscape:window-height="744"
     inkscape:window-x="0"
     inkscape:window-y="24"
     inkscape:window-maximized="1" />
  <metadata
     id="metadata3776">
    <rdf:RDF>
      <cc:Work
         rdf:about="">
        <dc:format>image/svg+xml</dc:format>
        <dc:type
           rdf:resource="http://purl.org/dc/dcmitype/StillImage" />
        <dc:title></dc:title>
      </cc:Work>
    </rdf:RDF>
  </metadata>
  <g
     id="layer1"
     inkscape:label="Layer 1"
     inkscape:groupmode="layer">
    <g
       transform="matrix(0.08838957,0,0,0.08547343,-0.63518537,-7.3516572)"
       id="g3833"
       style="fill:#68238e;fill-opacity:1"
       inkscape:export-filename="/home/arman2152/Documents/altyn_urpak/address.png"
       inkscape:export-xdpi="143.35422"
       inkscape:export-ydpi="143.35422">
      <g
         id="g3768"
         style="fill:#68238e;fill-opacity:1">
        <path
           style="fill:#68238e;fill-opacity:1;stroke:none"
           d="m 342.0454,830.52221 c -12.62506,-1.24043 -30.81063,-4.29103 -40.41243,-6.77911 -9.60179,-2.48809 -19.48703,-4.52377 -21.96721,-4.52377 -7.27676,0 -70.64373,-28.09435 -80.74531,-35.79918 -5.08941,-3.88188 -10.53313,-7.05797 -12.09716,-7.05797 -1.56404,0 -4.54268,-1.64945 -6.61921,-3.66545 -2.07653,-2.016 -8.27551,-6.73946 -13.77551,-10.49655 -21.59803,-14.7538 -79.999999,-75.37197 -79.999999,-83.0358 0,-1.31671 -1.861005,-4.25503 -4.135565,-6.5296 -14.911315,-14.91131 -47.854307,-88.92008 -53.096919,-119.286 -1.235704,-7.15734 -3.604163,-18.08591 -5.263242,-24.28571 -1.659078,-6.19977 -4.24038,-24.36412 -5.736225,-40.3652 -7.183854,-76.84589 16.915779,-173.40744 58.946237,-236.18372 5.107143,-7.62798 9.285714,-14.42724 9.285714,-15.10948 0,-0.68224 8.449206,-11.16018 18.776009,-23.28432 19.07637,-22.39652 44.46133,-46.73357 61.70342,-59.15626 13.45877,-9.69686 61.6111,-38.60191 64.30613,-38.60191 1.23532,0 13.8425,-4.40396 28.01596,-9.78659 50.61817,-19.223168 114.818,-24.755532 171.4842,-14.777502 25.24157,4.444646 37.50251,8.067045 78.58037,23.215942 21.27668,7.84653 68.164,38.44807 93.99685,61.34815 14.46938,12.82668 54.56563,57.95566 54.56563,61.41451 0,1.00314 3.09629,5.91669 6.88063,10.91898 8.90546,11.77162 33.00569,58.01739 36.00774,69.09508 1.27758,4.71429 5.52143,18.21429 9.43078,30 24.04734,72.4968 22.56877,161.78695 -3.92686,237.14286 -10.36943,29.49154 -35.14652,78.59097 -44.25672,87.70117 -2.27457,2.27457 -4.13557,5.31215 -4.13557,6.75015 0,4.0626 -30.85634,39.47291 -50.06145,57.4498 -18.90052,17.69177 -46.94489,39.52745 -50.76658,39.52745 -1.32571,0 -6.50317,3.09429 -11.50545,6.8762 -5.00229,3.78192 -22.21752,12.75306 -38.25603,19.93589 -49.52903,22.18146 -112.20997,32.55654 -165.22223,27.34794 l 0,0 z M 379.06566,725.6479 c 2.88694,-9.03572 8.29605,-23.21372 12.02023,-31.50669 3.7242,-8.29294 6.77125,-16.3278 6.77125,-17.85523 0,-4.48711 27.4332,-58.59308 44.86949,-88.49523 3.20711,-5.5 8.24491,-14.49902 11.19511,-19.99782 2.95017,-5.49883 6.08537,-10.64169 6.96706,-11.42858 1.35486,-1.2092 11.66537,-17.4228 26.33869,-41.41848 1.91774,-3.13612 6.05822,-9.5466 9.20108,-14.24549 6.62814,-9.9098 8.46652,-13.13571 22.8248,-40.05248 5.86777,-11 13.92512,-30.28572 17.9052,-42.85715 14.1694,-44.75537 7.31297,-103.10241 -16.73846,-142.44148 -8.74268,-14.29976 -32.32197,-41.82563 -38.29217,-44.70137 -1.63117,-0.78572 -9.06068,-5.67962 -16.51003,-10.87535 -35.42022,-24.70473 -101.59485,-32.09774 -150.18354,-16.77847 -13.11823,4.13598 -30.15691,12.05008 -37.86374,17.58689 -7.70684,5.53681 -14.60079,10.06693 -15.31989,10.06693 -3.2998,0 -29.63772,30.67819 -38.03999,44.30867 -24.40005,39.58268 -31.57286,99.00607 -17.10065,141.67098 11.59875,34.1938 22.41558,54.94335 56.46133,108.30769 10.21428,16.01017 21.65574,34.45229 25.42545,40.98246 3.76971,6.5302 7.62686,12.51591 8.57143,13.30163 0.94458,0.78571 3.95949,5.92857 6.69978,11.42857 2.74031,5.5 6.08242,11.92857 7.42691,14.28571 9.5336,16.71432 13.37583,24.16629 23.40794,45.39957 6.22909,13.18403 11.32563,25.04175 11.32563,26.35046 0,1.30871 3.04706,9.16463 6.77126,17.45757 3.72417,8.29297 9.13328,22.47097 12.02023,31.50669 2.88694,9.03571 6.0022,16.42857 6.9228,16.42857 0.9206,0 4.03585,-7.39286 6.9228,-16.42857 l 0,0 z"
           id="path2996"
           inkscape:connector-curvature="0" />
      </g>
      <path
         inkscape:connector-curvature="0"
         id="path3766"
         d="m 353.52081,452.58109 c -29.53756,-11.02225 -47.59692,-30.91427 -52.69483,-58.04228 -11.73846,-62.46506 35.062,-107.70075 94.92176,-91.74806 18.39061,4.90113 38.63962,25.09122 45.31215,45.18031 5.53852,16.67494 6.3377,41.96356 1.60557,50.80563 -1.70171,3.17969 -3.10774,8.11578 -3.1245,10.96909 -0.0442,7.52599 -22.28967,30.48299 -36.62474,37.79619 -15.59509,7.95603 -36.00023,10.03768 -49.39541,5.03912 l 0,0 z"
         style="fill:#68238e;fill-opacity:1;stroke:none" />
    </g>
  </g>
</svg>
