<?xml version="1.0" encoding="iso-8859-1"?>
<!-- Generator: Adobe Illustrator 16.0.0, SVG Export Plug-In . SVG Version: 6.00 Build 0)  -->
<!DOCTYPE svg PUBLIC "-//W3C//DTD SVG 1.1//EN" "http://www.w3.org/Graphics/SVG/1.1/DTD/svg11.dtd">
<svg version="1.1" id="Layer_1" xmlns="http://www.w3.org/2000/svg" xmlns:xlink="http://www.w3.org/1999/xlink" x="0px" y="0px"
	 width="64px" height="64px" viewBox="0 0 64 64" style="enable-background:new 0 0 64 64;" xml:space="preserve">
<g id="Paper">
	<g>
		<path style="fill-rule:evenodd;clip-rule:evenodd;fill:#E6E6E6;" d="M4,60h56v-8H4V60z M58,22H10v6h48V22z M4,36.001V44h56v-7.999
			H4z M56,4H10v10.001h46V4z"/>
	</g>
</g>
<g id="Cover_11_">
	<g>
		<path style="fill:#666666;" d="M6,52h58v-4H4c-2.209,0-4,1.79-4,4v8c0,2.209,1.791,4,4,4h60v-4H6c-1.104,0-2-0.896-2-2v-4
			C4,52.896,4.896,52,6,52z"/>
	</g>
</g>
<g id="Cover_4_">
	<g>
		<path style="fill:#88C057;" d="M6,36.001h58V32H4c-2.209,0-4,1.791-4,4.001V44c0,2.21,1.791,4,4,4h60v-4H6c-1.104,0-2-0.896-2-2
			v-4C4,36.896,4.896,36.001,6,36.001z"/>
	</g>
</g>
<g id="Cover_5_">
	<g>
		<path style="fill:#48A0DC;" d="M58,18H6v4h50c1.104,0,2,0.896,2,2v2c0,1.104-0.896,2-2,2H6v4h52c2.209,0,4-1.791,4-4v-6
			C62,19.79,60.209,18,58,18z"/>
	</g>
</g>
<g id="Cover_6_">
	<g>
		<path style="fill:#ED7161;" d="M12,4h46V0H10C7.791,0,6,1.791,6,4v10.001C6,16.209,7.791,18,10,18h48v-3.999H12
			c-1.105,0-2-0.896-2-2.001V6C10,4.896,10.895,4,12,4z"/>
	</g>
</g>
<g id="Sign">
	<g>
		<polygon style="fill:#ED7161;" points="42,24 42,42 46,38 50,42 50,24 		"/>
	</g>
</g>
<g>
</g>
<g>
</g>
<g>
</g>
<g>
</g>
<g>
</g>
<g>
</g>
<g>
</g>
<g>
</g>
<g>
</g>
<g>
</g>
<g>
</g>
<g>
</g>
<g>
</g>
<g>
</g>
<g>
</g>
</svg>
