<?xml version="1.0" encoding="iso-8859-1"?>
<!-- Generator: Adobe Illustrator 16.0.0, SVG Export Plug-In . SVG Version: 6.00 Build 0)  -->
<!DOCTYPE svg PUBLIC "-//W3C//DTD SVG 1.1//EN" "http://www.w3.org/Graphics/SVG/1.1/DTD/svg11.dtd">
<svg version="1.1" id="Layer_1" xmlns="http://www.w3.org/2000/svg" xmlns:xlink="http://www.w3.org/1999/xlink" x="0px" y="0px"
	 width="64px" height="64px" viewBox="0 0 64 64" style="enable-background:new 0 0 64 64;" xml:space="preserve">
<g id="Days_3_">
	<g>
		<path style="fill-rule:evenodd;clip-rule:evenodd;fill:#CCCCCC;" d="M60,20v38c0,1.104-0.896,2-2,2H6c-1.104,0-2-0.896-2-2V20H0
			v40c0,2.21,1.791,4,4,4h56c2.209,0,4-1.79,4-4V20H60z M12,52h8c1.104,0,2-0.896,2-2v-6c0-1.104-0.896-2-2-2h-8
			c-1.104,0-2,0.896-2,2v6C10,51.104,10.896,52,12,52z M12,38h8c1.104,0,2-0.896,2-2v-6c0-1.104-0.896-2-2-2h-8
			c-1.104,0-2,0.896-2,2v6C10,37.104,10.896,38,12,38z M28,52h8c1.104,0,2-0.896,2-2v-6c0-1.104-0.896-2-2-2h-8
			c-1.104,0-2,0.896-2,2v6C26,51.104,26.896,52,28,52z M28,38h8c1.104,0,2-0.896,2-2v-6c0-1.104-0.896-2-2-2h-8
			c-1.104,0-2,0.896-2,2v6C26,37.104,26.896,38,28,38z M44,52h8c1.105,0,2-0.896,2-2v-6c0-1.104-0.896-2-2-2h-8
			c-1.104,0-2,0.896-2,2v6C42,51.104,42.896,52,44,52z M44,38h8c1.105,0,2-0.896,2-2v-6c0-1.104-0.896-2-2-2h-8
			c-1.104,0-2,0.896-2,2v6C42,37.104,42.896,38,44,38z"/>
	</g>
</g>
<g id="Header_3_">
	<g>
		<path style="fill-rule:evenodd;clip-rule:evenodd;fill:#ED7261;" d="M60,0H4C1.791,0,0,1.791,0,4v16h64V4C64,1.791,62.209,0,60,0z
			 M24,12.001c-1.104,0-2-0.896-2-2.001s0.896-1.999,2-1.999S26,8.896,26,10S25.104,12.001,24,12.001z M40,12.001
			c-1.104,0-2-0.896-2-2.001s0.896-1.999,2-1.999S42,8.896,42,10S41.104,12.001,40,12.001z"/>
	</g>
</g>
<g>
</g>
<g>
</g>
<g>
</g>
<g>
</g>
<g>
</g>
<g>
</g>
<g>
</g>
<g>
</g>
<g>
</g>
<g>
</g>
<g>
</g>
<g>
</g>
<g>
</g>
<g>
</g>
<g>
</g>
</svg>
