<?xml version="1.0" encoding="UTF-8" standalone="no"?>
<!-- Created with Inkscape (http://www.inkscape.org/) -->

<svg
   xmlns:dc="http://purl.org/dc/elements/1.1/"
   xmlns:cc="http://creativecommons.org/ns#"
   xmlns:rdf="http://www.w3.org/1999/02/22-rdf-syntax-ns#"
   xmlns:svg="http://www.w3.org/2000/svg"
   xmlns="http://www.w3.org/2000/svg"
   xmlns:sodipodi="http://sodipodi.sourceforge.net/DTD/sodipodi-0.dtd"
   xmlns:inkscape="http://www.inkscape.org/namespaces/inkscape"
   version="1.1"
   width="512"
   height="512"
   viewBox="0 0 512 512"
   id="Layer_1"
   xml:space="preserve"
   inkscape:version="0.48.4 r9939"
   sodipodi:docname="email.svg"><sodipodi:namedview
     pagecolor="#ffffff"
     bordercolor="#666666"
     borderopacity="1"
     objecttolerance="10"
     gridtolerance="10"
     guidetolerance="10"
     inkscape:pageopacity="0"
     inkscape:pageshadow="2"
     inkscape:window-width="1366"
     inkscape:window-height="744"
     id="namedview3827"
     showgrid="false"
     inkscape:zoom="0.4609375"
     inkscape:cx="186.35184"
     inkscape:cy="256"
     inkscape:window-x="0"
     inkscape:window-y="24"
     inkscape:window-maximized="1"
     inkscape:current-layer="Layer_1" /><metadata
     id="metadata13"><rdf:RDF><cc:Work
         rdf:about=""><dc:format>image/svg+xml</dc:format><dc:type
           rdf:resource="http://purl.org/dc/dcmitype/StillImage" /><dc:title /></cc:Work></rdf:RDF></metadata><defs
     id="defs11" /><g
     id="g3"
     style="fill:#d35f5f;fill-opacity:1;stroke:none"
     transform="translate(-427.38984,-82.440684)" /><path
     style="fill:#68238e;fill-opacity:1;stroke:none"
     d="M 252.53839,18.448704 C 174.22899,18.804793 98.196541,61.412643 56.194643,127.16744 14.359163,191.22681 6.5341027,276.24772 36.321463,346.89575 c 28.95849,70.56644 93.595557,125.24837 168.373177,141.17794 70.9796,15.83055 148.69977,-2.89695 204.00371,-50.06339 55.7321,-46.46931 88.34477,-119.56075 84.61411,-192.37337 C 490.46735,170.19678 449.1033,97.715883 385.71103,56.974893 346.50277,31.372593 299.53832,17.599444 252.53839,18.448704 z"
     id="path4355"
     inkscape:connector-curvature="0" /><path
     style="fill:#ffffff;fill-opacity:1;stroke:none"
     d="M 111.62063,153.06752 256.11779,262.93249 400.37937,153.06752 z"
     id="path4353"
     inkscape:connector-curvature="0" /><path
     style="fill:#ffffff;fill-opacity:1;stroke:none"
     d="m 406.77965,351.10113 0,-190.20226 -102.95423,78.37401 53.47966,60.78305 -1.57063,1.57062 -61.96101,-54.65762 -37.77345,28.74237 -37.77344,-28.74237 -61.96101,54.65762 -1.57062,-1.57062 53.40112,-60.78305 -102.87569,-78.21695 0,190.0452 z"
     id="path3829"
     inkscape:connector-curvature="0" /></svg>