<?xml version="1.0" encoding="UTF-8" standalone="no"?>
<!-- Created with Inkscape (http://www.inkscape.org/) -->

<svg
   xmlns:dc="http://purl.org/dc/elements/1.1/"
   xmlns:cc="http://creativecommons.org/ns#"
   xmlns:rdf="http://www.w3.org/1999/02/22-rdf-syntax-ns#"
   xmlns:svg="http://www.w3.org/2000/svg"
   xmlns="http://www.w3.org/2000/svg"
   xmlns:sodipodi="http://sodipodi.sourceforge.net/DTD/sodipodi-0.dtd"
   xmlns:inkscape="http://www.inkscape.org/namespaces/inkscape"
   width="64px"
   height="64px"
   id="svg4465"
   version="1.1"
   inkscape:version="0.48.4 r9939"
   sodipodi:docname="phone.svg">
  <defs
     id="defs4467" />
  <sodipodi:namedview
     id="base"
     pagecolor="#ffffff"
     bordercolor="#666666"
     borderopacity="1.0"
     inkscape:pageopacity="0.0"
     inkscape:pageshadow="2"
     inkscape:zoom="7.7781746"
     inkscape:cx="20.67683"
     inkscape:cy="29.423921"
     inkscape:current-layer="layer1"
     showgrid="true"
     inkscape:document-units="px"
     inkscape:grid-bbox="true"
     inkscape:window-width="1366"
     inkscape:window-height="744"
     inkscape:window-x="0"
     inkscape:window-y="24"
     inkscape:window-maximized="1" />
  <metadata
     id="metadata4470">
    <rdf:RDF>
      <cc:Work
         rdf:about="">
        <dc:format>image/svg+xml</dc:format>
        <dc:type
           rdf:resource="http://purl.org/dc/dcmitype/StillImage" />
        <dc:title />
      </cc:Work>
    </rdf:RDF>
  </metadata>
  <g
     id="layer1"
     inkscape:label="Layer 1"
     inkscape:groupmode="layer">
    <path
       style="fill:#68238e;fill-opacity:1;stroke:none"
       d="M 28.346307,63.768084 C 24.496695,63.18657 22.802911,62.752627 19.951833,61.617453 17.638376,60.696333 14.408694,58.867791 12.761199,57.546339 9.9127989,55.261644 8.2117121,53.537676 6.4159186,51.115691 3.2688701,46.871258 1.6244667,43.06042 0.46021768,37.313565 0.29386439,36.492438 0.20049016,34.534738 0.20113976,31.881855 0.20201336,28.267823 0.26094765,27.471426 0.65930852,25.693866 1.8176776,20.524392 3.5485672,16.678857 6.4742593,12.774712 7.5597949,11.32614 10.418702,8.2983275 11.467848,7.486105 c 2.070708,-1.6030979 2.993788,-2.2440055 4.434878,-3.0792327 1.68506,-0.9766159 1.91429,-1.0933308 3.555311,-1.8101519 5.751693,-2.512458 12.724039,-3.20706952 19.060393,-1.89888953 1.431347,0.29551168 1.700538,0.37132433 3.851584,1.08479663 5.168465,1.7143024 10.27196,5.1655425 13.796358,9.3298065 3.419892,4.040773 5.699692,8.447696 6.810573,13.165015 0.166287,0.706114 0.416886,1.772711 0.556897,2.370196 0.349887,1.493204 0.354558,8.94875 0.0067,10.66592 -1.057872,5.221777 -2.764939,9.289991 -5.518263,13.150904 -2.061637,2.890983 -3.632434,4.53495 -6.704756,7.017055 -1.692306,1.367204 -4.902522,3.193854 -7.268585,4.135929 -2.941596,1.171204 -4.204685,1.488455 -8.608181,2.162055 -1.515738,0.231862 -5.526675,0.2254 -7.094425,-0.01142 l 0,0 z M 45.200909,51.970843 c 2.20839,-0.800529 4.018419,-2.112282 4.665889,-3.381441 0.550995,-1.080026 1.194736,-3.167982 1.18768,-3.852189 -0.0034,-0.335114 -0.114554,-0.749693 -0.246893,-0.921276 -0.261362,-0.338867 -6.95242,-4.852638 -7.983356,-5.385544 -1.233678,-0.637716 -1.673546,-0.476145 -3.562523,1.308583 -2.466975,2.330828 -3.101633,2.780619 -3.70856,2.628288 -0.275172,-0.0691 -1.064479,-0.470869 -1.754006,-0.892907 -4.305429,-2.635221 -7.860493,-6.586506 -10.270863,-11.41559 -1.251194,-2.506735 -1.230273,-2.676022 0.522031,-4.22181 1.704245,-1.503396 2.006577,-1.841545 2.435727,-2.724249 0.307977,-0.63346 0.303553,-0.754857 -0.07918,-2.172696 -0.222969,-0.825953 -0.774926,-2.923855 -1.226566,-4.662013 -0.835899,-3.216948 -1.224527,-4.172799 -1.76524,-4.341784 -0.16661,-0.05208 -1.022625,-0.230563 -1.90226,-0.39667 -1.435154,-0.270994 -1.687221,-0.270994 -2.455405,3.3e-5 -2.154932,0.760311 -4.52319,3.459551 -5.555515,6.331965 -0.290718,0.80893 -0.450642,1.826694 -0.516532,3.28725 -0.153395,3.400157 0.649252,6.090056 3.347025,11.216846 2.42867,4.615411 4.645706,7.669657 8.04826,11.087476 2.871137,2.884017 4.864666,4.279501 9.534307,6.674079 3.196754,1.639285 4.45589,2.144986 5.86347,2.354941 1.37137,0.204545 4.159672,-0.0635 5.422537,-0.521292 z"
       id="path4452"
       inkscape:connector-curvature="0" />
  </g>
</svg>
