<?xml version="1.0" encoding="UTF-8" standalone="no"?>
<!-- Created with Inkscape (http://www.inkscape.org/) -->

<svg
   xmlns:dc="http://purl.org/dc/elements/1.1/"
   xmlns:cc="http://creativecommons.org/ns#"
   xmlns:rdf="http://www.w3.org/1999/02/22-rdf-syntax-ns#"
   xmlns:svg="http://www.w3.org/2000/svg"
   xmlns="http://www.w3.org/2000/svg"
   xmlns:sodipodi="http://sodipodi.sourceforge.net/DTD/sodipodi-0.dtd"
   xmlns:inkscape="http://www.inkscape.org/namespaces/inkscape"
   width="16px"
   height="16px"
   id="svg4362"
   version="1.1"
   inkscape:version="0.48.4 r9939"
   sodipodi:docname="New document 8">
  <defs
     id="defs4364" />
  <sodipodi:namedview
     id="base"
     pagecolor="#ffffff"
     bordercolor="#666666"
     borderopacity="1.0"
     inkscape:pageopacity="0.0"
     inkscape:pageshadow="2"
     inkscape:zoom="22.197802"
     inkscape:cx="7.8076846"
     inkscape:cy="4.2219667"
     inkscape:current-layer="layer1"
     showgrid="true"
     inkscape:grid-bbox="true"
     inkscape:document-units="px"
     inkscape:window-width="1366"
     inkscape:window-height="744"
     inkscape:window-x="0"
     inkscape:window-y="24"
     inkscape:window-maximized="1" />
  <metadata
     id="metadata4367">
    <rdf:RDF>
      <cc:Work
         rdf:about="">
        <dc:format>image/svg+xml</dc:format>
        <dc:type
           rdf:resource="http://purl.org/dc/dcmitype/StillImage" />
        <dc:title></dc:title>
      </cc:Work>
    </rdf:RDF>
  </metadata>
  <g
     id="layer1"
     inkscape:label="Layer 1"
     inkscape:groupmode="layer">
    <path
       style="fill:#8cc7df;fill-opacity:1"
       d="M 7.2185526,15.260266 C 7.1591483,15.209149 6.7789226,15.102371 6.3736131,15.022976 4.4977541,14.655531 2.5564846,13.145189 1.6600497,11.35575 1.451456,10.939363 1.0501193,10.376559 0.768188,10.105076 0.18514568,9.5436398 0.00545926,9.0518994 0.00617964,8.0197031 0.00690724,7.2157308 0.39451061,6.2658361 0.84178766,5.9727688 1.0133323,5.8603702 1.2038889,5.5594813 1.3145704,5.2262509 1.5404044,4.5463296 2.4495466,3.1444538 2.9740867,2.6673169 3.9958458,1.7379001 4.6734679,1.3402706 5.9735641,0.90722918 6.9951815,0.56694407 8.7981465,0.5384334 9.839285,0.84610421 c 2.160341,0.63840059 3.895327,2.20422089 4.76101,4.29679749 0.137166,0.3315679 0.430896,0.7819262 0.652728,1.0007935 0.570505,0.5628807 0.874028,1.6868375 0.684377,2.5342799 -0.240175,1.0732109 -0.720259,1.6167259 -1.546488,1.7508039 l -0.418272,0.06788 0.185096,-0.442591 C 14.452448,9.3493824 14.576699,8.0277712 14.441418,7.0367311 14.094778,4.4973807 12.529601,2.5587118 10.039152,1.5839628 9.1494176,1.2357262 7.0854067,1.2042178 6.1441084,1.524507 3.8398644,2.3085465 2.1701435,4.0901315 1.643035,6.327124 1.3636792,7.5126752 1.4688893,9.2531582 1.8828024,10.293663 c 0.6337009,1.593014 1.7962967,2.889033 3.2102066,3.57862 0.8723224,0.425446 2.0043957,0.709549 2.1694902,0.544451 0.1719849,-0.171982 0.6751738,-0.0055 0.7563441,0.250259 0.1506336,0.474612 -0.434264,0.908218 -0.8002907,0.59328 z m -0.00767,-2.057513 C 6.6891,12.965804 6.3715054,12.589053 6.3715054,12.207019 c 0,-0.244733 0.013097,-0.247668 0.3942938,-0.0884 0.5142193,0.214855 1.9944276,0.214855 2.5086504,0 l 0.39429,-0.164744 0,0.335293 c 0,0.389939 -0.3113954,0.74177 -0.8590438,0.970591 -0.5188103,0.216772 -1.0365874,0.198308 -1.5988169,-0.05701 z M 4.8466933,9.6595962 C 4.2660484,8.9695359 4.5712883,7.8980385 5.4083625,7.687946 5.8683724,7.5724915 6.4696081,7.8977584 6.6662912,8.3684821 c 0.3500415,0.8377726 -0.14836,1.6409299 -1.0182814,1.6409299 -0.4265224,0 -0.5536693,-0.055504 -0.8013165,-0.3498158 z m 4.6294136,0.075416 C 9.2046819,9.5015448 9.1570973,9.374729 9.1570973,8.8848659 c 0,-0.4764935 0.053904,-0.6296519 0.3126686,-0.8884204 0.7188661,-0.7188657 1.9044391,-0.1669717 1.9044391,0.8865287 0,0.9813777 -1.148415,1.4968878 -1.8980981,0.8520371 z M 2.0972933,7.4512166 C 2.3034714,4.7875635 3.5270029,3.0664345 5.8598668,2.1584456 6.4448408,1.9307595 6.7445766,1.8929248 7.9632734,1.8929248 c 1.2186967,0 1.5184324,0.037835 2.1034066,0.2655208 2.050539,0.7981045 3.523905,2.5305363 3.863974,4.5433901 l 0.08418,0.4982886 -0.490121,-0.078373 C 12.940356,7.02831 11.7424,6.4748808 11.277231,6.0834648 10.832915,5.709602 10.539939,4.9626875 10.636244,4.4493414 L 10.710814,4.051857 9.9190498,4.7987681 C 8.138467,6.4784787 6.8063094,7.0740102 4.0975525,7.401227 2.9382237,7.5412705 2.515754,7.6991728 2.2163895,8.1043257 2.0356007,8.3490044 2.0301219,8.3189731 2.0972934,7.4512162 z"
       id="path3054"
       inkscape:connector-curvature="0" />
  </g>
</svg>
