<?xml version="1.0" encoding="UTF-8" standalone="no"?>
<!-- Created with Inkscape (http://www.inkscape.org/) -->

<svg
   xmlns:dc="http://purl.org/dc/elements/1.1/"
   xmlns:cc="http://creativecommons.org/ns#"
   xmlns:rdf="http://www.w3.org/1999/02/22-rdf-syntax-ns#"
   xmlns:svg="http://www.w3.org/2000/svg"
   xmlns="http://www.w3.org/2000/svg"
   version="1.1"
   width="64"
   height="64"
   id="svg3101">
  <defs
     id="defs3103" />
  <metadata
     id="metadata3106">
    <rdf:RDF>
      <cc:Work
         rdf:about="">
        <dc:format>image/svg+xml</dc:format>
        <dc:type
           rdf:resource="http://purl.org/dc/dcmitype/StillImage" />
        <dc:title></dc:title>
      </cc:Work>
    </rdf:RDF>
  </metadata>
  <g
     id="layer1">
    <g
       id="g4066">
      <g
         transform="matrix(0.79855372,0,0,0.79855372,14.431818,10.892562)"
         id="g3034">
        <g
           id="Bulb">
          <g
             id="g4">
            <path
               d="M 22,0 C 9.85,0 0,9.551 0,21.333 0,38 12,40 12,48 H 32 C 32,40 44,38 44,21.333 44,9.551 34.15,0 22,0 z"
               id="path6"
               style="fill:#ffd073" />
          </g>
        </g>
        <g
           id="Spark">
          <g
             id="g9">
            <path
               d="m 28,20 c -2.209,0 -4,1.791 -4,4 h -4 c 0,-2.209 -1.791,-4 -4,-4 -2.209,0 -4,1.791 -4,4 0,2.209 1.791,4 4,4 v 20 h 4 V 28 h 4 v 20 h 4 V 28 c 2.209,0 4,-1.791 4,-4 0,-2.209 -1.791,-4 -4,-4 z"
               id="path11"
               style="fill:#d4a548;fill-rule:evenodd" />
          </g>
        </g>
        <g
           id="Head">
          <g
             id="g14">
            <ellipse
               cx="22"
               cy="58.014"
               rx="6"
               ry="5.9860001"
               id="ellipse16"
               style="fill:#949393" />
          </g>
        </g>
        <g
           id="Body_2_">
          <g
             id="g19">
            <path
               d="M 32,50 V 48 H 12 v 2 c 0,1.104 0.896,2 2,2 -1.104,0 -2,0.895 -2,2 0,1.104 0.896,2 2,2 h 2 c -1.104,0 -2,0.895 -2,2 0,1.104 0.896,1.999 2,1.999 h 12 c 1.104,0 2,-0.895 2,-1.999 0,-1.105 -0.896,-2 -2,-2 h 2 c 1.104,0 2,-0.896 2,-2 0,-1.105 -0.896,-2 -2,-2 1.104,0 2,-0.896 2,-2 z"
               id="path21"
               style="fill:#b3b3b3;fill-rule:evenodd" />
          </g>
        </g>
        <g
           id="g23" />
        <g
           id="g25" />
        <g
           id="g27" />
        <g
           id="g29" />
        <g
           id="g31" />
        <g
           id="g33" />
        <g
           id="g35" />
        <g
           id="g37" />
        <g
           id="g39" />
        <g
           id="g41" />
        <g
           id="g43" />
        <g
           id="g45" />
        <g
           id="g47" />
        <g
           id="g49" />
        <g
           id="g51" />
      </g>
      <rect
         width="8.5454531"
         height="2.7272725"
         rx="1.4709513"
         ry="1.3636363"
         x="3.8181829"
         y="26.181818"
         id="rect3174"
         style="fill:#ffd073;fill-opacity:1;stroke:none" />
      <rect
         width="8.5454531"
         height="2.7272725"
         rx="1.4709513"
         ry="1.3636363"
         x="-9.363636"
         y="30.454544"
         transform="matrix(0,-1,1,0,0,0)"
         id="rect3174-7"
         style="fill:#ffd073;fill-opacity:1;stroke:none" />
      <rect
         width="8.5454531"
         height="2.7272725"
         rx="1.4709513"
         ry="1.3636363"
         x="51.545456"
         y="26.09091"
         id="rect3174-4"
         style="fill:#ffd073;fill-opacity:1;stroke:none" />
      <rect
         width="8.5454531"
         height="2.7272725"
         rx="1.4709513"
         ry="1.3636363"
         x="22.983027"
         y="41.062771"
         transform="matrix(0.70710678,-0.70710678,0.70710678,0.70710678,0,0)"
         id="rect3174-9"
         style="fill:#ffd073;fill-opacity:1;stroke:none" />
      <rect
         width="8.5454531"
         height="2.7272725"
         rx="1.4709513"
         ry="1.3636363"
         x="13.469226"
         y="-3.6778038"
         transform="matrix(0.70710678,0.70710678,-0.70710678,0.70710678,0,0)"
         id="rect3174-1"
         style="fill:#ffd073;fill-opacity:1;stroke:none" />
      <rect
         width="8.5454531"
         height="2.7272725"
         rx="1.4709513"
         ry="1.3636363"
         x="-15.498953"
         y="43.171669"
         transform="matrix(0.8660254,-0.5,0.5,0.8660254,0,0)"
         id="rect3174-6"
         style="fill:#ffd073;fill-opacity:1;stroke:none" />
      <rect
         width="8.5454531"
         height="2.7272725"
         rx="1.4709513"
         ry="1.3636363"
         x="62.13076"
         y="11.105118"
         transform="matrix(0.8660254,0.5,-0.5,0.8660254,0,0)"
         id="rect3174-17"
         style="fill:#ffd073;fill-opacity:1;stroke:none" />
    </g>
  </g>
</svg>
