<?xml version="1.0" encoding="UTF-8" standalone="no"?>
<!-- Created with Inkscape (http://www.inkscape.org/) -->

<svg
   xmlns:dc="http://purl.org/dc/elements/1.1/"
   xmlns:cc="http://creativecommons.org/ns#"
   xmlns:rdf="http://www.w3.org/1999/02/22-rdf-syntax-ns#"
   xmlns:svg="http://www.w3.org/2000/svg"
   xmlns="http://www.w3.org/2000/svg"
   xmlns:sodipodi="http://sodipodi.sourceforge.net/DTD/sodipodi-0.dtd"
   xmlns:inkscape="http://www.inkscape.org/namespaces/inkscape"
   width="64px"
   height="64px"
   id="svg3982"
   version="1.1"
   inkscape:version="0.48.4 r9939"
   sodipodi:docname="vk.svg">
  <defs
     id="defs3984" />
  <sodipodi:namedview
     id="base"
     pagecolor="#ffffff"
     bordercolor="#666666"
     borderopacity="1.0"
     inkscape:pageopacity="0.0"
     inkscape:pageshadow="2"
     inkscape:zoom="5.5"
     inkscape:cx="-6"
     inkscape:cy="32"
     inkscape:current-layer="layer1"
     showgrid="true"
     inkscape:document-units="px"
     inkscape:grid-bbox="true"
     inkscape:window-width="1366"
     inkscape:window-height="744"
     inkscape:window-x="0"
     inkscape:window-y="24"
     inkscape:window-maximized="1" />
  <metadata
     id="metadata3987">
    <rdf:RDF>
      <cc:Work
         rdf:about="">
        <dc:format>image/svg+xml</dc:format>
        <dc:type
           rdf:resource="http://purl.org/dc/dcmitype/StillImage" />
        <dc:title></dc:title>
      </cc:Work>
    </rdf:RDF>
  </metadata>
  <g
     id="layer1"
     inkscape:label="Layer 1"
     inkscape:groupmode="layer">
    <path
       style="fill:#68238e;fill-opacity:1;stroke:none"
       d="M 28.927632,48.943759 C 25.987094,48.574827 22.549781,46.994845 19.922529,44.804513 17.546801,42.823871 14.438923,38.722542 11.651991,33.890242 9.0674904,29.408941 4.9290841,20.611439 4.9290841,19.598561 c 0,-0.243492 0.1589454,-0.405978 0.4746363,-0.485212 0.4746427,-0.119127 6.2247426,-0.449646 7.9920716,-0.459388 l 0.93671,-0.0052 0.806156,1.406205 c 0.443385,0.773413 1.730689,3.120867 2.860675,5.216566 1.129988,2.095698 2.37781,4.300265 2.77294,4.899035 1.770632,2.683178 3.184204,3.449992 4.17945,2.267209 0.643688,-0.76498 0.754469,-1.699634 0.741859,-6.259015 -0.01323,-4.782499 -0.10167,-5.131864 -1.668234,-6.589853 l -1.0369,-0.965034 0.450859,-0.346683 c 0.885617,-0.680985 1.603637,-0.782512 5.622063,-0.794948 4.205814,-0.01302 5.657376,0.186395 5.998652,0.824075 0.101648,0.18993 0.26512,2.038928 0.363271,4.108884 0.351117,7.404834 0.480081,8.888295 0.834627,9.600643 0.603953,1.213449 1.25968,1.257096 2.531455,0.168504 1.052433,-0.900843 2.456792,-3.088573 4.786938,-7.457154 1.117821,-2.095699 2.275294,-4.239027 2.572164,-4.762951 l 0.539763,-0.95259 5.423673,0 c 5.05404,0 5.435686,0.02245 5.599952,0.32938 0.486575,0.909177 -0.817996,3.583051 -4.57547,9.377967 -3.098811,4.779099 -3.571655,5.656593 -3.571655,6.628213 0,1.080719 0.454235,1.789064 3.20714,5.001276 1.189366,1.387804 2.578842,3.054136 3.087722,3.702959 2.176147,2.774585 2.447999,4.394997 0.814196,4.853121 -0.26746,0.075 -2.575358,0.136356 -5.128668,0.136356 l -4.64238,0 -0.78576,-0.544337 c -0.43217,-0.299386 -2.110131,-1.781654 -3.728804,-3.293932 -3.168788,-2.960503 -3.418313,-3.147393 -4.202228,-3.147393 -1.121979,0 -1.564123,0.721132 -2.326611,3.794674 -0.510609,2.058231 -0.829739,2.817839 -1.251911,2.979842 -0.522507,0.200504 -4.374031,0.277769 -5.679804,0.113943 l 0,0 z"
       id="path3040"
       inkscape:connector-curvature="0" />
    <g
       transform="matrix(0.12701203,0,0,0.12701203,-15.508962,-22.484505)"
       id="g3873"
       style="stroke-width:7.87326996000000001;stroke-miterlimit:4;stroke-dasharray:none;stroke:#68238e;stroke-opacity:1">
      <g
         id="g3884"
         style="stroke-width:7.87326996000000001;stroke-miterlimit:4;stroke-dasharray:none;stroke:#68238e;stroke-opacity:1">
        <path
           inkscape:connector-curvature="0"
           style="fill:none;stroke:#68238e;stroke-width:7.87326996000000001;stroke-miterlimit:4;stroke-dashoffset:12;stroke-dasharray:none;stroke-opacity:1"
           d="m 210.5116,183.631 328.51001,0 c 46.11073,0 83.23237,32.6648 83.23237,73.23947 l 0,348.49582 c 0,40.57466 -37.12164,73.23947 -83.23237,73.23947 l -328.51001,0 c -46.11074,0 -83.23238,-32.66481 -83.23238,-73.23947 l 0,-348.49582 c 0,-40.57467 37.12164,-73.23947 83.23238,-73.23947 z"
           id="rect3065" />
      </g>
    </g>
  </g>
</svg>
